<svg id="icon" xmlns="http://www.w3.org/2000/svg" width="180" height="180" viewBox="0 0 180 180">
  <path id="Path_711" data-name="Path 711" d="M89.364,0A89.364,89.364,0,1,1,0,89.364,89.364,89.364,0,0,1,89.364,0Z" transform="translate(0.636 0.636)" fill="#5abe86"/>
  <g id="Page-1" transform="translate(0 0)">
    <g id="vector-control">
      <g id="Group-3">
        <path id="Fill-1" d="M90,5.678a84.586,84.586,0,1,0,84.586,84.586A84.682,84.682,0,0,0,90,5.678Zm0,174.586a90,90,0,1,1,90-90,90.1,90.1,0,0,1-90,90Z" transform="translate(0 -0.264)" fill="#fff" fill-rule="evenodd"/>
      </g>
      <path id="Fill-4" d="M53.352,35.475c-1.123,0-2.371,1.574-2.371,3.832s1.249,3.83,2.371,3.83,2.371-1.574,2.371-3.83S54.473,35.475,53.352,35.475Zm0,11.81c-1.742,0-3.685,2.772-3.685,6.746s1.944,6.748,3.685,6.748,3.682-2.772,3.682-6.748S55.094,47.285,53.352,47.285Zm0,18.815c-.859,2.066-1.933,7.08-1.933,14.543s1.074,12.476,1.933,14.543c.861-2.068,1.935-7.082,1.935-14.543S54.211,68.166,53.35,66.1Zm0,34.045c-5.647,0-6.087-14.927-6.087-19.5,0-3.359.238-12.3,2.6-16.813-2.6-1.756-4.349-5.44-4.349-9.8a12.491,12.491,0,0,1,3.3-8.941,8.9,8.9,0,0,1-1.989-5.784c0-4.476,2.866-7.982,6.524-7.982s6.524,3.507,6.524,7.982a8.893,8.893,0,0,1-1.989,5.786,12.49,12.49,0,0,1,3.3,8.939c0,4.359-1.749,8.042-4.348,9.8,2.361,4.514,2.6,13.455,2.6,16.813,0,4.575-.44,19.5-6.086,19.5Z" transform="translate(36.63 24.732)" fill="#fff" fill-rule="evenodd"/>
      <path id="Fill-5" d="M57.288,65.306a2.093,2.093,0,0,1-.89-.2L43.372,58.923a2.074,2.074,0,0,1-1-2.731l5.84-12.906L34.422,18.242a2.076,2.076,0,0,1,3.637-2l14.29,25.956a2.072,2.072,0,0,1,.072,1.857L46.992,56.046l11.188,5.31a2.076,2.076,0,0,1-.892,3.951" transform="translate(27.494 11.728)" fill="#fff" fill-rule="evenodd"/>
      <path id="Fill-6" d="M65.264,48.882c-10.136,2.59-31.228,8.5-35.5,12.148-2.155,1.841-4.622,4.277-4.126,5.431.406.633,3.453,3.057,10.515,2.583,9.426-.637,14.866-3.407,16.31-4.243,1.765-1.023,8.93-7.3,13.592-11.511ZM34.312,73.259c-8.361,0-11.818-3.608-12.464-5.117-1.108-2.565-.633-5.272,5.225-10.269C33.247,52.6,63.042,45.146,66.419,44.312a2.076,2.076,0,0,1,2.539,1.648l1.386,7.728a2.074,2.074,0,0,1-.648,1.9c-1.247,1.135-12.274,11.134-15.155,12.8-2.1,1.216-8.069,4.113-18.105,4.793-.74.052-1.449.074-2.124.074Z" transform="translate(17.199 35.135)" fill="#fff" fill-rule="evenodd"/>
      <path id="Fill-7" d="M25.9,94.6a2.075,2.075,0,0,1-1.438-3.57L47.085,69.273l-.653-8.518a2.075,2.075,0,1,1,4.138-.316L51.3,69.93a2.078,2.078,0,0,1-.632,1.657L27.337,94.023A2.07,2.07,0,0,1,25.9,94.6ZM50.98,113.959a2.139,2.139,0,0,1-.63-.1A2.078,2.078,0,0,1,49,111.253L59.993,76.672,52.136,58.461a2.074,2.074,0,1,1,3.81-1.642l8.165,18.921a2.063,2.063,0,0,1,.074,1.451L52.958,112.511a2.077,2.077,0,0,1-1.978,1.447Z" transform="translate(19.172 44.238)" fill="#fff" fill-rule="evenodd"/>
      <path id="Fill-8" d="M52.942,48.773a2.075,2.075,0,0,1-2-1.543L44.374,22.586a2.075,2.075,0,0,1,4.01-1.068l6.564,24.644A2.077,2.077,0,0,1,53.478,48.7,2.113,2.113,0,0,1,52.942,48.773Zm6.623,16.535a2.076,2.076,0,0,1-.892-3.952l11.188-5.31-5.431-12A2.073,2.073,0,0,1,64.5,42.2l14.29-25.954a2.076,2.076,0,0,1,3.638,2L68.641,43.287l5.842,12.906a2.075,2.075,0,0,1-1,2.731l-13.03,6.183a2.056,2.056,0,0,1-.888.2Z" transform="translate(35.654 11.728)" fill="#fff" fill-rule="evenodd"/>
      <path id="Fill-9" d="M55.532,53.289c4.8,4.333,11.812,10.477,13.6,11.511,1.442.836,6.88,3.606,16.308,4.243,7.057.475,10.1-1.949,10.536-2.624.473-1.114-1.994-3.548-4.149-5.387-4.268-3.644-25.362-9.56-35.5-12.15Zm31.744,19.97c-.675,0-1.381-.022-2.122-.074-10.038-.68-16.007-3.577-18.105-4.792-2.879-1.669-13.909-11.668-15.156-12.8a2.074,2.074,0,0,1-.648-1.9L52.63,45.96a2.076,2.076,0,0,1,2.539-1.648c3.377.834,33.172,8.289,39.346,13.561,5.858,5,6.335,7.7,5.243,10.229-.662,1.545-4.122,5.156-12.482,5.156Z" transform="translate(41.213 35.135)" fill="#fff" fill-rule="evenodd"/>
      <path id="Fill-10" d="M51.572,46.628a2.078,2.078,0,0,1-2.007-2.61l6.564-24.644a2.076,2.076,0,0,1,4.012,1.067L53.577,45.086A2.079,2.079,0,0,1,51.572,46.628ZM95.1,124.965a2.066,2.066,0,0,1-1.438-.578L70.329,101.951a2.071,2.071,0,0,1-.63-1.657l.729-9.491a2.075,2.075,0,1,1,4.138.316l-.655,8.519L96.538,121.4a2.075,2.075,0,0,1-1.438,3.57ZM70.017,144.323a2.074,2.074,0,0,1-1.976-1.447L56.813,107.555a2.063,2.063,0,0,1,.072-1.451L65.05,87.183a2.075,2.075,0,1,1,3.812,1.642L61,107.037l10.991,34.581a2.078,2.078,0,0,1-1.348,2.608,2.129,2.129,0,0,1-.63.1Z" transform="translate(39.832 13.873)" fill="#fff" fill-rule="evenodd"/>
      <path id="Fill-11" d="M50.61,12.5s.067.162.177.467.274.753.457,1.323.4,1.262.63,2.056c.11.4.226.819.35,1.263a1.559,1.559,0,0,1,.025.684,6.747,6.747,0,0,0-.018.718V47.654a7.211,7.211,0,0,1-3.238,0V19.007a6.735,6.735,0,0,0-.022-.718A1.559,1.559,0,0,1,49,17.6c.123-.444.238-.866.348-1.263.231-.794.442-1.485.632-2.056s.35-1.018.457-1.323.175-.467.175-.467" transform="translate(39.39 9.579)" fill="#fff" fill-rule="evenodd"/>
    </g>
  </g>
</svg>
