<svg id="icon" xmlns="http://www.w3.org/2000/svg" width="180" height="180" viewBox="0 0 180 180">
  <rect id="Rectangle_25" data-name="Rectangle 25" width="179.625" height="179.625" rx="89.812" transform="translate(0)" fill="#5ccdce"/>
  <g id="Page-1" transform="translate(0)">
    <g id="treatment">
      <path id="Fill-1" d="M51.933,53.145,67.974,69.184,84.22,52.937a10.66,10.66,0,0,0,0-15.068l-.973-.973a10.653,10.653,0,0,0-15.066,0ZM67.974,75.721a2.7,2.7,0,0,1-1.915-.794L46.19,55.058a2.7,2.7,0,0,1,0-3.828L64.353,33.069a16.065,16.065,0,0,1,22.722,0l.973.973a16.071,16.071,0,0,1,0,22.724L69.887,74.927a2.7,2.7,0,0,1-1.913.794Z" transform="translate(36.533 22.348)" fill="#fff" fill-rule="evenodd"/>
      <g id="Group-5">
        <path id="Fill-2" d="M52.882,52.182,36.634,68.428a10.655,10.655,0,0,0,0,15.068l.973.973a10.657,10.657,0,0,0,15.066,0L68.919,68.223ZM45.14,93A15.958,15.958,0,0,1,33.779,88.3l-.973-.973a16.067,16.067,0,0,1,0-22.724L50.967,46.439a2.788,2.788,0,0,1,3.828,0L74.662,66.308a2.706,2.706,0,0,1,0,3.828L56.5,88.3A15.955,15.955,0,0,1,45.14,93Z" transform="translate(22.613 36.284)" fill="#fff" fill-rule="evenodd"/>
        <path id="Fill-4" d="M90,5.678a84.586,84.586,0,1,0,84.586,84.586A84.682,84.682,0,0,0,90,5.678Zm0,174.586a90,90,0,1,1,90-90,90.1,90.1,0,0,1-90,90Z" transform="translate(0 -0.264)" fill="#fff" fill-rule="evenodd"/>
      </g>
    </g>
  </g>
</svg>
