<?xml version="1.0" encoding="UTF-8" standalone="no"?>
<!-- Created with Inkscape (http://www.inkscape.org/) -->

<svg
   width="210mm"
   height="297mm"
   viewBox="0 0 210 297"
   version="1.1"
   id="svg1"
   xml:space="preserve"
   inkscape:export-filename="HealthRADAR_HiRes.png"
   inkscape:export-xdpi="96"
   inkscape:export-ydpi="96"
   inkscape:version="1.3.2 (091e20e, 2023-11-25, custom)"
   sodipodi:docname="HealthRADAR_HiRes.svg"
   xmlns:inkscape="http://www.inkscape.org/namespaces/inkscape"
   xmlns:sodipodi="http://sodipodi.sourceforge.net/DTD/sodipodi-0.dtd"
   xmlns="http://www.w3.org/2000/svg"
   xmlns:svg="http://www.w3.org/2000/svg"><sodipodi:namedview
     id="namedview1"
     pagecolor="#ffffff"
     bordercolor="#000000"
     borderopacity="0.25"
     inkscape:showpageshadow="2"
     inkscape:pageopacity="0.0"
     inkscape:pagecheckerboard="0"
     inkscape:deskcolor="#d1d1d1"
     inkscape:document-units="mm"
     inkscape:zoom="0.79375"
     inkscape:cx="396.22047"
     inkscape:cy="561.25984"
     inkscape:window-width="1920"
     inkscape:window-height="1129"
     inkscape:window-x="1224"
     inkscape:window-y="1072"
     inkscape:window-maximized="1"
     inkscape:current-layer="g3" /><defs
     id="defs1" /><g
     inkscape:label="Layer 1"
     inkscape:groupmode="layer"
     id="layer1"><g
       id="g3"
       transform="matrix(0.01939453,0,0,0.01939453,1.6583511,5.450017)"
       inkscape:label="Parent"><g
         id="lTV1MEDnjC1TLJtAAAV2A9"
         fill="#0f1766"
         style="display:inline"
         inkscape:label="LogoColour"><g
           id="g2"
           inkscape:label="Logo"><path
             id="p01iuINj5"
             d="m 4830,9710 c -14,-4 -62,-8 -107,-9 -83,-1 -135,-7 -313,-37 -151,-25 -192,-32 -240,-42 -25,-6 -70,-15 -100,-21 -105,-21 -358,-98 -565,-171 -305,-108 -788,-363 -1035,-546 -30,-22 -91,-67 -135,-100 C 1964,8510 1575,8097 1301,7686 850,7011 592,6266 530,5460 c -23,-289 4,-875 50,-1095 6,-27 15,-79 20,-115 6,-36 17,-90 25,-120 8,-30 21,-82 29,-115 8,-33 24,-94 36,-135 12,-41 25,-91 30,-110 13,-50 101,-298 144,-405 78,-191 256,-536 379,-730 39,-61 234,-332 285,-396 188,-234 412,-462 617,-629 264,-216 266,-217 572,-416 28,-19 54,-34 57,-34 3,0 34,-17 68,-38 62,-37 428,-222 441,-222 4,0 30,-11 59,-24 29,-14 66,-28 81,-31 15,-4 30,-11 33,-16 3,-5 16,-9 29,-9 13,0 26,-4 29,-8 2,-4 76,-31 163,-59 232,-76 290,-93 321,-93 15,0 32,-4 37,-9 14,-12 98,-31 139,-31 19,0 38,-4 41,-10 3,-5 24,-10 46,-10 22,0 48,-4 57,-9 57,-29 402,-61 757,-68 813,-16 1618,193 2342,608 188,109 473,306 617,427 24,21 54,46 67,56 13,10 74,64 134,120 508,466 903,1037 1157,1671 58,145 152,433 183,560 14,61 32,135 40,165 8,30 19,84 25,120 5,36 14,86 20,112 46,227 73,796 50,1088 -47,613 -191,1145 -455,1685 -153,315 -294,538 -535,850 -184,237 -476,534 -699,710 -320,252 -539,391 -876,557 -510,251 -1041,399 -1630,453 -170,16 -641,19 -685,5 z m 532,-194 c -3,-5 0,-6 7,-2 6,4 19,2 27,-5 9,-7 32,-10 62,-6 105,11 459,-39 722,-103 25,-6 59,-14 75,-17 17,-3 35,-9 40,-13 6,-3 37,-13 70,-20 33,-7 64,-17 70,-22 5,-4 19,-8 31,-8 13,0 26,-4 29,-10 3,-5 17,-10 30,-10 13,0 27,-4 30,-10 3,-5 14,-10 24,-10 9,0 36,-9 59,-20 22,-11 48,-20 56,-20 8,0 18,-4 21,-10 3,-5 15,-10 25,-10 11,0 34,-8 52,-18 18,-10 60,-29 92,-42 33,-13 132,-60 220,-105 143,-72 183,-94 261,-142 11,-7 40,-24 65,-39 38,-23 185,-120 264,-174 258,-177 600,-503 861,-820 101,-122 249,-337 363,-526 160,-267 349,-695 423,-959 4,-16 13,-48 19,-70 13,-46 47,-181 61,-240 5,-22 20,-105 34,-185 13,-80 29,-167 34,-195 6,-27 13,-89 16,-138 l 5,-87 -62,45 c -161,117 -584,285 -943,374 -349,86 -1018,199 -1490,250 -342,38 -741,64 -1260,82 -300,10 -1001,7 -1374,-7 l -154,-5 7,133 c 4,73 11,183 17,243 34,387 50,557 58,605 6,30 15,107 21,170 6,63 15,138 20,165 5,28 14,91 20,140 7,50 15,104 20,120 5,17 14,64 20,105 6,41 15,91 20,110 5,19 14,62 20,95 6,33 18,83 26,110 8,28 18,73 24,100 5,28 14,66 19,85 6,19 19,69 30,110 135,504 249,756 419,933 52,53 72,67 117,77 44,11 284,7 277,-4 z m -612,-14 c 0,-4 -12,-24 -26,-43 -75,-100 -175,-312 -262,-555 -195,-544 -372,-1608 -427,-2576 l -7,-118 -26,-1 c -15,0 -79,-5 -142,-10 -63,-5 -169,-14 -235,-18 -205,-15 -377,-31 -460,-42 -44,-5 -114,-14 -155,-19 -295,-35 -450,-56 -580,-79 -30,-5 -82,-14 -115,-20 -95,-16 -142,-26 -297,-60 -93,-21 -136,-31 -213,-52 -44,-11 -96,-24 -115,-29 -49,-12 -93,-25 -175,-50 -38,-12 -83,-25 -100,-30 -205,-55 -451,-163 -602,-263 -39,-26 -74,-47 -77,-47 -13,0 20,265 60,475 29,155 43,216 96,400 109,384 310,816 556,1190 256,389 632,792 1003,1072 520,394 1131,673 1751,802 135,28 375,66 463,74 78,7 85,7 85,-1 z M 5758,6034 c 232,-4 422,-9 422,-13 0,-3 26,-7 58,-8 31,-2 125,-8 207,-14 83,-6 204,-14 270,-19 66,-4 161,-13 210,-19 50,-7 135,-16 190,-21 55,-5 132,-14 170,-20 39,-5 115,-15 170,-21 142,-15 299,-39 415,-63 41,-9 89,-16 106,-16 16,0 34,-4 40,-9 5,-5 47,-16 94,-25 137,-25 243,-48 265,-56 35,-14 129,-40 165,-46 19,-3 49,-12 65,-19 17,-7 62,-21 100,-30 39,-9 78,-20 87,-25 10,-6 27,-10 37,-10 11,0 23,-4 26,-10 3,-5 17,-10 30,-10 13,0 26,-4 29,-9 3,-4 27,-14 53,-21 57,-14 240,-101 301,-141 24,-16 45,-29 48,-29 18,0 161,-133 182,-170 27,-44 27,-47 24,-210 -15,-897 -335,-1809 -893,-2545 -250,-331 -538,-614 -910,-895 -40,-29 -327,-220 -332,-220 -3,0 -49,-26 -104,-58 -218,-129 -533,-267 -813,-356 -144,-46 -164,-52 -250,-75 -25,-7 -59,-17 -76,-22 -17,-5 -39,-9 -49,-9 -10,0 -32,-4 -49,-9 -28,-9 -84,-19 -291,-53 -255,-41 -653,-55 -712,-25 -45,24 -169,161 -208,231 -79,141 -193,429 -259,652 -73,247 -175,756 -226,1124 -6,47 -15,114 -21,150 -46,314 -97,932 -119,1450 -22,493 -12,1676 14,1686 19,7 810,22 966,18 80,-2 335,-7 568,-10 z M 4016,5933 c -3,-43 -9,-329 -13,-635 -6,-578 3,-961 34,-1368 9,-113 19,-252 23,-310 16,-220 30,-368 41,-450 6,-47 15,-123 20,-170 6,-47 14,-116 19,-155 5,-38 14,-108 19,-155 11,-85 22,-157 40,-260 5,-30 14,-84 20,-120 11,-63 21,-113 40,-202 6,-24 13,-56 16,-73 3,-16 10,-46 15,-65 5,-19 23,-93 40,-165 17,-71 35,-141 40,-155 4,-14 13,-45 20,-70 7,-25 16,-54 20,-65 4,-11 13,-40 20,-65 72,-255 157,-455 260,-614 33,-51 60,-96 60,-99 0,-8 -87,0 -265,24 -645,89 -1286,338 -1845,718 -105,71 -110,75 -224,164 -43,34 -91,71 -105,82 -56,42 -271,242 -369,343 -187,194 -309,345 -484,597 -74,108 -195,318 -279,486 -223,446 -365,908 -428,1399 -36,272 -46,593 -21,641 47,88 175,191 328,261 158,73 174,79 295,124 221,82 403,132 702,193 515,104 1056,180 1580,221 77,6 158,12 180,14 22,1 78,3 124,4 l 84,2 z"
             inkscape:label="Globe" /><path
             id="pDfwpJAEv"
             d="m 6262,8597 c -20,-21 -22,-34 -22,-128 0,-97 2,-107 23,-126 27,-26 43,-30 80,-20 38,10 47,40 47,155 0,118 -12,142 -69,142 -26,0 -44,-7 -59,-23 z"
             inkscape:label="CloudDrop2" /><path
             id="p16ewg6RkY"
             d="m 6904,8595 c -23,-35 -17,-236 8,-261 24,-25 73,-22 103,6 24,22 25,29 25,130 0,98 -2,108 -23,128 -33,31 -91,30 -113,-3 z"
             inkscape:label="CloudDrop4" /><path
             id="pj9pfKPyW"
             d="m 5973,8462 c -43,-7 -53,-37 -53,-158 0,-110 1,-113 26,-133 32,-25 46,-26 84,-6 l 30,16 v 123 c 0,105 -3,125 -17,138 -23,19 -42,25 -70,20 z"
             inkscape:label="CloudDrop1" /><path
             id="pdgMkh1be"
             d="m 6610,8457 c -41,-21 -51,-53 -48,-158 4,-114 17,-139 78,-139 63,0 75,23 75,151 0,95 -2,111 -20,128 -28,27 -56,33 -85,18 z"
             inkscape:label="CloudDrop3" /><path
             id="pN758Q62J"
             d="m 7236,8444 c -13,-12 -16,-40 -16,-139 v -124 l 30,-16 c 38,-20 52,-19 84,6 25,20 26,23 26,133 0,134 -10,156 -70,156 -22,0 -45,-7 -54,-16 z"
             inkscape:label="CloudDrop5" /><path
             id="p12AkEDEJJ"
             d="m 5705,8041 c -89,-26 -154,-63 -213,-123 -105,-105 -159,-271 -135,-413 22,-131 85,-229 206,-322 24,-18 30,-34 38,-85 22,-162 71,-280 156,-382 91,-110 241,-204 383,-242 88,-23 263,-23 350,-1 150,39 317,150 409,271 36,49 46,57 65,50 39,-14 181,-16 236,-4 145,32 284,139 347,268 23,48 32,55 97,86 185,85 298,271 283,467 -17,212 -157,381 -362,435 -40,11 -226,14 -925,13 -803,0 -880,-2 -935,-18 z m 1875,-158 c 76,-37 124,-86 165,-169 36,-72 37,-80 32,-145 -6,-76 -37,-154 -81,-207 -37,-43 -139,-98 -197,-106 -46,-7 -47,-8 -59,-54 -16,-66 -51,-122 -109,-175 -81,-72 -130,-91 -241,-91 -93,-1 -129,9 -220,61 -3,1 -25,-36 -50,-83 -130,-250 -421,-367 -692,-278 -108,35 -242,145 -302,249 -55,93 -91,245 -79,333 5,39 5,39 -52,67 -122,59 -189,164 -189,295 -1,65 3,84 32,143 41,82 98,133 185,164 l 62,23 875,-3 875,-2 z"
             inkscape:label="CloudMain" /><path
             id="pTC9Gekgu"
             d="m 2261,8282 c -19,-9 -44,-30 -55,-45 -21,-28 -21,-37 -24,-870 -2,-575 0,-854 8,-879 6,-20 24,-48 41,-62 l 31,-26 h 541 542 l 238,237 238,238 -3,667 c -3,656 -3,667 -24,695 -48,66 -15,63 -794,63 -651,0 -708,-1 -739,-18 z m 1429,-729 v -618 l -207,-207 -208,-208 h -482 -483 v 825 825 h 690 690 z"
             inkscape:label="BinDoc" /><path
             id="p19xy28LEx"
             d="m 2460,7960 v -60 h 65 65 v -145 -145 h -65 -65 v -44 c 0,-24 -3,-52 -6,-60 -6,-15 8,-16 127,-14 l 134,3 5,200 5,200 68,3 67,3 v 59 60 h -200 -200 z"
             inkscape:label="BinBL" /><path
             id="pCloYy51f"
             d="m 3000,7755 v -265 h 200 200 v 265 265 h -200 -200 z m 275,0 v -140 h -70 -70 l -3,129 c -1,72 0,136 3,143 3,10 23,13 72,11 l 68,-3 z"
             inkscape:label="BinBR" /><path
             id="pgQCfYjeV"
             d="m 2460,7070 v -270 h 200 200 v 270 270 h -200 -200 z m 270,0 v -141 l -72,3 -73,3 -3,138 -3,137 h 76 75 z"
             inkscape:label="BinTL" /><path
             id="pgmcvmmXh"
             d="m 3000,7280 v -59 l 68,-3 67,-3 3,-139 c 2,-105 -1,-141 -10,-148 -7,-4 -39,-8 -70,-8 h -58 v -60 -60 h 130 130 l 2,203 3,202 68,3 67,3 v 64 65 h -200 -200 z"
             inkscape:label="BinTR" /><path
             id="p9Em11yFc"
             d="m 6830,5666 c -86,-27 -129,-102 -264,-456 -35,-91 -88,-212 -117,-269 -53,-102 -54,-104 -52,-185 2,-69 8,-95 43,-181 33,-81 40,-108 35,-140 -8,-56 -44,-129 -108,-222 -97,-138 -102,-153 -102,-277 v -108 l -55,-17 c -30,-10 -85,-34 -121,-54 -76,-43 -95,-44 -198,-18 -241,62 -311,70 -406,46 -78,-19 -125,-46 -211,-121 -214,-187 -301,-407 -265,-676 36,-264 80,-353 238,-474 117,-90 161,-133 211,-204 66,-94 170,-198 226,-226 45,-21 61,-24 180,-22 72,0 158,-5 192,-12 38,-7 118,-11 215,-8 143,3 157,5 198,28 45,26 71,73 71,133 0,15 10,38 23,51 23,23 148,79 203,90 28,6 34,3 52,-28 28,-47 77,-76 128,-76 23,0 82,12 130,26 82,23 99,25 204,19 141,-9 182,1 234,54 42,43 55,85 56,180 0,46 8,70 51,149 50,94 143,239 203,317 72,95 243,276 263,282 13,3 51,0 85,-7 110,-22 157,-23 204,-5 52,20 57,28 74,117 17,84 4,153 -47,250 -37,70 -117,156 -356,383 -98,94 -117,117 -127,155 -13,47 -6,182 11,227 5,13 14,64 20,114 20,164 -11,250 -121,336 -140,111 -126,92 -133,183 -4,44 -15,100 -25,124 -45,101 -180,281 -294,393 -65,64 -136,104 -231,129 -62,16 -266,16 -317,0 z m 281,-154 c 37,-10 87,-30 111,-45 54,-31 179,-180 261,-309 55,-88 57,-93 57,-162 1,-113 37,-168 184,-275 83,-60 91,-105 56,-296 -24,-129 -26,-263 -5,-323 26,-73 58,-114 186,-232 275,-256 339,-338 339,-429 0,-48 -4,-49 -107,-25 -83,19 -150,12 -203,-21 -42,-27 -267,-274 -323,-357 -108,-156 -127,-187 -188,-305 -56,-107 -59,-116 -59,-186 0,-113 1,-113 -172,-109 -124,3 -150,0 -198,-18 -77,-28 -93,-26 -121,17 -31,49 -61,63 -132,63 -96,0 -312,-85 -364,-143 -25,-27 -43,-79 -43,-122 0,-25 -5,-34 -22,-39 -42,-11 -197,-6 -310,10 -69,10 -146,14 -198,11 -60,-4 -92,-1 -110,8 -35,19 -108,98 -166,180 -56,81 -75,99 -204,203 -52,41 -105,87 -118,101 -62,69 -102,224 -102,401 0,107 26,208 71,272 50,72 194,211 244,234 60,29 146,32 232,8 249,-68 325,-71 438,-13 44,23 104,47 133,55 29,8 66,24 83,36 51,37 59,65 59,191 v 113 l 78,120 c 109,167 125,207 126,324 1,88 -2,101 -37,182 -51,118 -49,146 12,261 27,51 66,137 86,192 33,91 54,144 132,330 34,80 50,103 76,108 55,11 158,5 218,-11 z"
             inkscape:label="Africa" /><path
             id="p15SneowzK"
             d="m 2392,4808 c -44,-55 -83,-179 -97,-303 -12,-113 -34,-170 -100,-261 -15,-20 -14,-23 20,-53 20,-17 42,-31 49,-31 31,0 110,137 125,217 6,27 15,86 22,133 12,89 39,178 66,219 15,24 15,26 -23,58 -44,37 -48,38 -62,21 z"
             inkscape:label="MosquitoLegBottom" /><path
             id="p14fTkRQIo"
             d="m 3442,4801 c -99,-34 -160,-84 -327,-268 -96,-105 -203,-203 -237,-216 -14,-5 -44,4 -98,28 -43,19 -94,35 -113,35 -88,0 -205,-84 -304,-217 -87,-117 -79,-111 -156,-106 l -68,5 -22,47 c -12,25 -47,72 -77,104 -52,53 -59,57 -100,57 h -45 l -242,242 -243,242 -35,-34 c -19,-19 -35,-39 -35,-45 0,-5 108,-118 240,-250 235,-234 241,-241 235,-273 -10,-53 27,-116 98,-168 l 60,-45 2,-82 c 2,-102 20,-140 113,-240 38,-40 95,-106 129,-147 165,-204 676,-690 725,-690 7,0 28,36 47,79 70,166 38,292 -124,475 -74,84 -154,144 -310,232 -134,75 -165,99 -165,126 0,23 3,23 75,-6 33,-13 81,-29 108,-35 66,-15 288,-13 367,4 l 65,14 127,-80 c 118,-73 176,-98 318,-139 25,-7 48,-13 52,-14 4,0 99,-90 211,-198 l 204,-197 39,40 38,39 -199,200 c -109,110 -211,204 -225,209 -14,6 -72,24 -130,42 -98,29 -180,65 -180,78 0,3 26,14 59,23 81,24 121,70 121,137 0,83 -62,149 -161,170 -83,18 -212,14 -277,-9 -55,-19 -58,-19 -99,-3 -32,13 -46,26 -53,49 -26,77 -145,130 -239,104 -53,-14 -109,-64 -132,-116 -23,-51 -66,-75 -86,-48 -17,24 -17,28 11,68 85,126 162,203 232,232 34,14 38,14 109,-21 153,-73 221,-40 466,231 136,150 219,217 285,230 18,3 35,12 37,18 8,21 -14,106 -26,105 -7,0 -36,-8 -65,-18 z M 1974,4119 c 27,-32 34,-55 14,-43 -26,15 -58,48 -58,61 0,22 17,15 44,-18 z m 731,-119 c 4,-6 -10,-10 -34,-10 -23,0 -41,5 -41,10 0,6 15,10 34,10 19,0 38,-4 41,-10 z m -478,-61 c 30,-11 79,-53 94,-82 8,-13 5,-27 -11,-52 -11,-19 -27,-53 -33,-77 -10,-32 -20,-45 -40,-52 -25,-9 -32,-5 -78,40 -86,84 -100,145 -45,200 36,36 64,42 113,23 z m 639,-80 c 46,-28 81,-78 64,-89 -21,-13 -175,-23 -259,-17 -80,6 -201,43 -201,62 0,16 41,52 65,58 11,3 82,5 159,6 124,1 142,-1 172,-20 z m 414,-1 c 57,-29 62,-50 17,-72 -39,-18 -179,-41 -201,-33 -15,6 -60,83 -61,102 0,13 52,22 135,24 50,1 76,-4 110,-21 z m -933,-302 c 15,-13 48,-33 73,-46 66,-33 208,-119 260,-158 64,-47 165,-167 200,-236 30,-59 41,-148 21,-160 -20,-13 -611,585 -611,618 0,14 31,4 57,-18 z"
             inkscape:label="MosquitoMain" /><path
             id="pRDkcJv0B"
             d="m 900,4739 v -59 h 33 c 51,0 186,-59 267,-118 131,-95 289,-262 378,-400 33,-51 42,-75 47,-130 23,-227 73,-287 220,-261 36,6 69,17 71,23 3,7 -4,34 -15,60 -18,41 -23,46 -40,36 -24,-13 -88,-13 -96,-1 -3,6 -12,61 -21,123 -10,74 -23,130 -40,163 -57,118 -267,358 -394,451 -126,92 -262,154 -367,167 l -43,5 z"
             inkscape:label="MosquitoLegFront" /></g></g></g></g></svg>
